<svg preserveAspectRatio="none" width="100%" height="100%" overflow="visible" style="display: block;" viewBox="0 0 13 16" fill="none" xmlns="http://www.w3.org/2000/svg">
<g id="fa6-regular:chess-knight" clip-path="url(#clip0_126_2080)">
<path id="Vector" d="M6.58125 1.5H3.16563L3.7 1.9C3.8875 2.04062 4 2.2625 4 2.5C4 2.7375 3.8875 2.95937 3.7 3.1L3.49688 3.25312C3.18438 3.4875 2.99688 3.85625 2.99688 4.25L2.9875 7.09375C2.9875 7.4125 3.14063 7.71563 3.4 7.9L3.45937 7.94063C3.76875 8.1625 4.1875 8.15937 4.49687 7.9375L6.05625 6.80312C6.39063 6.55937 6.85938 6.63438 7.10313 6.96875C7.34688 7.30312 7.27187 7.77187 6.9375 8.01562L5.37813 9.15L3.69688 10.3719C3.46875 10.5375 3.29063 10.7531 3.16875 11H1.58437C1.75 10.3094 2.14062 9.69063 2.70625 9.24063C2.66562 9.21563 2.625 9.1875 2.5875 9.15938L2.53125 9.11875C1.875 8.65 1.4875 7.89375 1.49063 7.0875L1.5 4.24375C1.50313 3.625 1.70937 3.03438 2.08125 2.55938L2.06875 2.55C1.70937 2.28125 1.5 1.8625 1.5 1.41562C1.5 0.634375 2.13438 0 2.91563 0H6.58125C9.85 0 12.5 2.65 12.5 5.91875C12.5 6.26562 12.4688 6.6125 12.4094 6.95625L11.6906 11H10.1656L10.9312 6.69375C10.9781 6.4375 11 6.17812 11 5.91875C11 3.47812 9.02188 1.5 6.58125 1.5ZM2.1625 13.5L1.64687 14.5H11.3562L10.8375 13.5H2.1625ZM12.0281 12.5406L12.8562 14.1406C12.95 14.3219 13 14.5219 13 14.725C13 15.4281 12.4313 16 11.725 16H1.275C0.56875 16 0 15.4313 0 14.725C0 14.5219 0.05 14.3219 0.14375 14.1406L0.971875 12.5406C1.14062 12.2094 1.48438 12 1.85938 12H11.1406C11.5156 12 11.8562 12.2094 12.0281 12.5406ZM4.875 4C5.04076 4 5.19973 4.06585 5.31694 4.18306C5.43415 4.30027 5.5 4.45924 5.5 4.625C5.5 4.79076 5.43415 4.94973 5.31694 5.06694C5.19973 5.18415 5.04076 5.25 4.875 5.25C4.70924 5.25 4.55027 5.18415 4.43306 5.06694C4.31585 4.94973 4.25 4.79076 4.25 4.625C4.25 4.45924 4.31585 4.30027 4.43306 4.18306C4.55027 4.06585 4.70924 4 4.875 4Z" fill="var(--fill-0, #A394C7)"/>
</g>
<defs>
<clipPath id="clip0_126_2080">
<rect width="13" height="16" fill="white"/>
</clipPath>
</defs>
</svg>
