<svg preserveAspectRatio="none" width="100%" height="100%" overflow="visible" style="display: block;" viewBox="0 0 10 15" fill="none" xmlns="http://www.w3.org/2000/svg">
<g id="fa6-regular:chess-pawn" clip-path="url(#clip0_126_2064)">
<path id="Vector" d="M7.25 3.75C7.25 3.45453 7.1918 3.16194 7.07873 2.88896C6.96566 2.61598 6.79992 2.36794 6.59099 2.15901C6.38206 1.95008 6.13402 1.78434 5.86104 1.67127C5.58806 1.5582 5.29547 1.5 5 1.5C4.70453 1.5 4.41194 1.5582 4.13896 1.67127C3.86598 1.78434 3.61794 1.95008 3.40901 2.15901C3.20008 2.36794 3.03434 2.61598 2.92127 2.88896C2.8082 3.16194 2.75 3.45453 2.75 3.75C2.75 4.04547 2.8082 4.33806 2.92127 4.61104C3.03434 4.88402 3.20008 5.13206 3.40901 5.34099C3.61794 5.54992 3.86598 5.71566 4.13896 5.82873C4.41194 5.9418 4.70453 6 5 6C5.29547 6 5.58806 5.9418 5.86104 5.82873C6.13402 5.71566 6.38206 5.54992 6.59099 5.34099C6.79992 5.13206 6.96566 4.88402 7.07873 4.61104C7.1918 4.33806 7.25 4.04547 7.25 3.75ZM8 7.5H7.60625L7.94063 10H6.42812L6.09375 7.5H3.90625L3.57188 10H2.05938L2.39375 7.5H2C1.58437 7.5 1.25 7.16563 1.25 6.75C1.25 6.33437 1.58437 6 2 6C1.52812 5.37187 1.25 4.59375 1.25 3.75C1.25 1.67812 2.92812 0 5 0C7.07188 0 8.75 1.67812 8.75 3.75C8.75 4.59375 8.47188 5.37187 8 6C8.41563 6 8.75 6.33437 8.75 6.75C8.75 7.16563 8.41563 7.5 8 7.5ZM1.64688 13.5H8.35625L7.8375 12.5H2.1625L1.64688 13.5ZM8.14375 11C8.51875 11 8.85938 11.2094 9.03125 11.5406L9.85938 13.1406C9.95312 13.3219 10.0031 13.5219 10.0031 13.725C10.0031 14.4281 9.43437 15 8.72812 15H1.275C0.56875 15 0 14.4313 0 13.725C0 13.5219 0.05 13.3219 0.14375 13.1406L0.971875 11.5406C1.14063 11.2094 1.48438 11 1.85938 11H8.14062H8.14375Z" fill="var(--fill-0, #A394C7)"/>
</g>
<defs>
<clipPath id="clip0_126_2064">
<rect width="10.0031" height="15" fill="white"/>
</clipPath>
</defs>
</svg>
