<svg preserveAspectRatio="none" width="100%" height="100%" overflow="visible" style="display: block;" viewBox="0 0 14 16" fill="none" xmlns="http://www.w3.org/2000/svg">
<g id="fa6-regular:chess-king" clip-path="url(#clip0_126_2070)">
<path id="Vector" d="M7.75 0.75C7.75 0.334375 7.41563 0 7 0C6.58437 0 6.25 0.334375 6.25 0.75V1.75H5.25C4.83437 1.75 4.5 2.08437 4.5 2.5C4.5 2.91563 4.83437 3.25 5.25 3.25H6.25V4.5H1.8625C0.834375 4.5 0 5.33438 0 6.3625C0 6.61875 0.053125 6.87187 0.153125 7.10625L1.84687 11H3.48125L1.53125 6.50625C1.5125 6.45937 1.5 6.4125 1.5 6.3625C1.5 6.1625 1.6625 6 1.8625 6H12.1375C12.3375 6 12.5 6.1625 12.5 6.3625C12.5 6.4125 12.4906 6.4625 12.4688 6.50625L10.5156 11H12.15L13.8438 7.10625C13.9469 6.87187 13.9969 6.61875 13.9969 6.3625C13.9969 5.33438 13.1625 4.5 12.1344 4.5H7.75V3.25H8.75C9.16563 3.25 9.5 2.91563 9.5 2.5C9.5 2.08437 9.16563 1.75 8.75 1.75H7.75V0.75ZM3.1625 13.5H10.8375L11.3562 14.5H2.64687L3.16563 13.5H3.1625ZM12.0281 12.5406C11.8562 12.2094 11.5125 12 11.1406 12H2.85938C2.48438 12 2.14375 12.2094 1.97187 12.5406L1.14375 14.1406C1.05 14.3219 1 14.5219 1 14.725C1 15.4313 1.56875 16 2.275 16H11.7281C12.4312 16 13.0031 15.4313 13.0031 14.725C13.0031 14.5219 12.9531 14.3219 12.8594 14.1406L12.0312 12.5406H12.0281Z" fill="var(--fill-0, #A394C7)"/>
</g>
<defs>
<clipPath id="clip0_126_2070">
<rect width="13.9969" height="16" fill="white"/>
</clipPath>
</defs>
</svg>
