<svg preserveAspectRatio="none" width="100%" height="100%" overflow="visible" style="display: block;" viewBox="0 0 12 15" fill="none" xmlns="http://www.w3.org/2000/svg">
<g id="fa6-regular:chess-rook" clip-path="url(#clip0_126_2067)">
<path id="Vector" d="M1.5 1.5V5C1.5 5.07812 1.5375 5.15312 1.6 5.2L3.2 6.4C3.4125 6.55938 3.525 6.81875 3.49687 7.08438L3.17188 10H1.6625L1.95625 7.34375L0.7 6.4C0.259375 6.06875 0 5.55 0 5V1.25C0 0.559375 0.559375 0 1.25 0H10.75C11.4406 0 12 0.559375 12 1.25V5C12 5.55 11.7406 6.06875 11.3 6.4L10.0437 7.34375L10.3375 10H8.82812L8.50313 7.08438C8.475 6.82188 8.5875 6.55938 8.8 6.4L10.4 5.2C10.4625 5.15312 10.5 5.07812 10.5 5V1.5H8.5V2.25C8.5 2.66563 8.16563 3 7.75 3C7.33437 3 7 2.66563 7 2.25V1.5H5V2.25C5 2.66563 4.66563 3 4.25 3C3.83437 3 3.5 2.66563 3.5 2.25V1.5H1.5ZM1.64687 13.5H10.3562L9.8375 12.5H2.1625L1.64687 13.5ZM10.1438 11C10.5188 11 10.8594 11.2094 11.0312 11.5406L11.8594 13.1406C11.9531 13.3219 12.0031 13.5219 12.0031 13.725C12.0031 14.4281 11.4344 15 10.7281 15H1.275C0.56875 15 0 14.4313 0 13.725C0 13.5219 0.05 13.3219 0.14375 13.1406L0.971875 11.5406C1.14062 11.2094 1.48438 11 1.85938 11H10.1406H10.1438ZM5.5 8C5.225 8 5 7.775 5 7.5V6C5 5.44687 5.44687 5 6 5C6.55313 5 7 5.44687 7 6V7.5C7 7.775 6.775 8 6.5 8H5.5Z" fill="var(--fill-0, #A394C7)"/>
</g>
<defs>
<clipPath id="clip0_126_2067">
<rect width="12.0031" height="15" fill="white"/>
</clipPath>
</defs>
</svg>
