<svg preserveAspectRatio="none" width="100%" height="100%" overflow="visible" style="display: block;" viewBox="0 0 10 16" fill="none" xmlns="http://www.w3.org/2000/svg">
<g id="fa6-regular:chess-bishop" clip-path="url(#clip0_126_2061)">
<path id="Vector" d="M3.25 0.003125C2.83437 0.003125 2.5 0.3375 2.5 0.753125C2.5 1.10313 2.7375 1.39687 3.0625 1.47812C2.81875 1.72812 2.55937 2.00937 2.3 2.32187C1.19375 3.65 0 5.59063 0 7.84375C0 9.24375 0.76875 10.1 1.5 10.5875V11.0031H3V10.1594C3 9.87813 2.84375 9.62188 2.59375 9.49375C2.03125 9.20313 1.5 8.72188 1.5 7.84688C1.5 6.1125 2.43125 4.50937 3.45 3.2875C3.95 2.6875 4.45313 2.2 4.83125 1.86562C4.89063 1.8125 4.94687 1.76562 4.99687 1.72187C5.05 1.76562 5.10312 1.81562 5.1625 1.86562C5.54062 2.2 6.04375 2.6875 6.54375 3.2875C6.70937 3.48437 6.87187 3.69375 7.02812 3.9125L4.96875 5.97188C4.675 6.26563 4.675 6.74062 4.96875 7.03125C5.2625 7.32188 5.7375 7.325 6.02812 7.03125L7.83437 5.225C8.23437 6.03438 8.49687 6.92188 8.49687 7.84375C8.49687 8.71875 7.96562 9.2 7.40312 9.49063C7.15312 9.61875 6.99687 9.875 6.99687 10.1562V11H8.49687V10.5844C9.22812 10.0969 9.99687 9.24375 9.99687 7.84063C9.99687 5.5875 8.80313 3.64687 7.69688 2.31875C7.4375 2.00937 7.17812 1.725 6.93437 1.475C7.25625 1.39062 7.49687 1.09688 7.49687 0.75C7.49687 0.334375 7.1625 0 6.74687 0L5 0.003125H3.25ZM1.64688 14.5031L2.16563 13.5031H7.84062L8.35938 14.5031H1.64688ZM8.14375 12.0031H1.8625C1.4875 12.0031 1.14688 12.2125 0.975 12.5437L0.14375 14.1438C0.05 14.325 0 14.525 0 14.7281C0 15.4344 0.56875 16.0031 1.275 16.0031H8.72812C9.43125 16.0031 10.0031 15.4344 10.0031 14.7281C10.0031 14.525 9.95312 14.325 9.85938 14.1438L9.03125 12.5437C8.85938 12.2125 8.51563 12.0031 8.14375 12.0031Z" fill="var(--fill-0, #A394C7)"/>
</g>
<defs>
<clipPath id="clip0_126_2061">
<rect width="10.0031" height="16.0031" fill="white"/>
</clipPath>
</defs>
</svg>
