<svg preserveAspectRatio="none" width="100%" height="100%" overflow="visible" style="display: block;" viewBox="0 0 16 16" fill="none" xmlns="http://www.w3.org/2000/svg">
<g id="fluent:chess-20-regular">
<path id="Vector" d="M8 2.4C8 2.18783 8.08429 1.98434 8.23431 1.83431C8.38434 1.68429 8.58783 1.6 8.8 1.6H9.2C9.508 1.6 9.7896 1.716 10.0016 1.9072C10.2222 1.70909 10.5083 1.59966 10.8048 1.6H11.5968C11.9048 1.6 12.1864 1.716 12.3992 1.9072C12.6192 1.70964 12.9043 1.60025 13.2 1.6H13.6C13.8122 1.6 14.0157 1.68429 14.1657 1.83431C14.3157 1.98434 14.4 2.18783 14.4 2.4V4.4C14.4002 4.85414 14.2459 5.29484 13.9624 5.64961C13.6788 6.00438 13.283 6.25209 12.84 6.352C13.0672 9.5864 14.2 11.62 14.5896 12.232C14.7176 12.4336 14.8 12.6744 14.8 12.9336V13.2C14.8 13.3576 14.769 13.5136 14.7087 13.6592C14.6483 13.8048 14.56 13.9371 14.4485 14.0485C14.3371 14.16 14.2048 14.2483 14.0592 14.3087C13.9136 14.369 13.7576 14.4 13.6 14.4H9.2192C9.39407 14.163 9.51304 13.8895 9.5672 13.6H13.6C13.7061 13.6 13.8078 13.5579 13.8828 13.4828C13.9579 13.4078 14 13.3061 14 13.2V12.9336C13.9978 12.8367 13.9681 12.7423 13.9144 12.6616C13.456 11.9416 12.1904 9.6424 12.0192 6.0184C12.0167 5.96475 12.0251 5.91114 12.0438 5.86079C12.0625 5.81043 12.0911 5.76436 12.128 5.72531C12.1649 5.68626 12.2092 5.65504 12.2584 5.63352C12.3077 5.61199 12.3607 5.60059 12.4144 5.6C12.7302 5.59621 13.0317 5.46811 13.2536 5.24348C13.4756 5.01884 13.6 4.71578 13.6 4.4V2.4H13.2C13.0939 2.4 12.9922 2.44214 12.9172 2.51716C12.8421 2.59217 12.8 2.69391 12.8 2.8V3.6C12.8003 3.70609 12.7585 3.80795 12.6837 3.88319C12.6089 3.95843 12.5073 4.00088 12.4012 4.0012C12.2951 4.00152 12.1932 3.95968 12.118 3.88489C12.0428 3.8101 12.0003 3.70849 12 3.6024V3.6L11.996 2.7984C11.9956 2.69259 11.9532 2.59126 11.8783 2.51659C11.8033 2.44192 11.7018 2.4 11.596 2.4H10.804C10.6982 2.4 10.5967 2.44192 10.5217 2.51659C10.4468 2.59126 10.4044 2.69259 10.404 2.7984L10.4 3.6016C10.3997 3.70769 10.3572 3.8093 10.282 3.88409C10.2068 3.95888 10.1049 4.00072 9.9988 4.0004C9.89271 4.00008 9.7911 3.95763 9.71631 3.88239C9.64152 3.80715 9.59968 3.70529 9.6 3.5992V2.7992C9.6 2.69311 9.55786 2.59137 9.48284 2.51636C9.40783 2.44134 9.30609 2.3992 9.2 2.3992H8.8V4.3992C8.79977 4.71512 8.92412 5.01839 9.14608 5.24319C9.36805 5.468 9.6697 5.59621 9.9856 5.6C10.0393 5.60059 10.0923 5.61199 10.1416 5.63352C10.1908 5.65504 10.2351 5.68626 10.272 5.72531C10.3089 5.76436 10.3375 5.81043 10.3562 5.86079C10.3749 5.91114 10.3833 5.96475 10.3808 6.0184C10.2544 8.6904 9.5328 10.6416 8.9792 11.7712C8.92741 11.7186 8.87322 11.6684 8.8168 11.6208C8.65588 11.4868 8.50851 11.3372 8.3768 11.1744C8.8472 10.152 9.4072 8.5224 9.56 6.3512C9.11746 6.25065 8.72215 6.00288 8.43876 5.64842C8.15537 5.29397 8.00068 4.85382 8 4.4V2.4ZM3.6 6.4C3.6 6.14648 3.66025 5.89658 3.77577 5.67091C3.8913 5.44524 4.05879 5.25025 4.26446 5.10201C4.47013 4.95378 4.70808 4.85653 4.95871 4.8183C5.20933 4.78007 5.46545 4.80194 5.70596 4.88211C5.94648 4.96228 6.1645 5.09845 6.34206 5.27942C6.51961 5.46038 6.65163 5.68094 6.72722 5.92293C6.80281 6.16492 6.81982 6.42141 6.77684 6.67127C6.73385 6.92112 6.63211 7.15718 6.48 7.36C6.43543 7.41943 6.40829 7.49009 6.40162 7.56408C6.39494 7.63806 6.40901 7.71244 6.44223 7.77889C6.47545 7.84533 6.52652 7.90121 6.58971 7.94026C6.6529 7.97931 6.72572 8 6.8 8H7.2C7.30609 8 7.40783 8.04214 7.48284 8.11716C7.55786 8.19217 7.6 8.29391 7.6 8.4C7.6 8.50609 7.55786 8.60783 7.48284 8.68284C7.40783 8.75786 7.30609 8.8 7.2 8.8H6.3144C6.25785 8.80004 6.20194 8.81208 6.15038 8.83531C6.09882 8.85855 6.05277 8.89245 6.01527 8.93479C5.97778 8.97712 5.94968 9.02693 5.93285 9.08092C5.91601 9.13491 5.91081 9.19185 5.9176 9.248C6.1592 11.224 7.2048 12.3584 7.7896 12.848C7.9296 12.9648 8 13.112 8 13.2392C8.00011 13.2866 7.99085 13.3336 7.97275 13.3774C7.95466 13.4212 7.92808 13.461 7.89456 13.4946C7.86104 13.5281 7.82122 13.5547 7.7774 13.5728C7.73358 13.5908 7.68661 13.6001 7.6392 13.6H2.76C2.71266 13.6 2.66578 13.5907 2.62205 13.5725C2.57832 13.5544 2.5386 13.5278 2.50516 13.4943C2.47172 13.4608 2.44522 13.421 2.42717 13.3772C2.40913 13.3334 2.39989 13.2865 2.4 13.2392C2.4 13.1112 2.4704 12.9648 2.6096 12.848C3.1952 12.3584 4.2416 11.224 4.4824 9.248C4.48919 9.19185 4.48399 9.13491 4.46715 9.08092C4.45032 9.02693 4.42222 8.97712 4.38473 8.93479C4.34723 8.89245 4.30118 8.85855 4.24962 8.83531C4.19806 8.81208 4.14215 8.80004 4.0856 8.8H3.2C3.09391 8.8 2.99217 8.75786 2.91716 8.68284C2.84214 8.60783 2.8 8.50609 2.8 8.4C2.8 8.29391 2.84214 8.19217 2.91716 8.11716C2.99217 8.04214 3.09391 8 3.2 8H3.6C3.67428 8 3.7471 7.97931 3.81029 7.94026C3.87348 7.90121 3.92455 7.84533 3.95777 7.77889C3.99099 7.71244 4.00505 7.63806 3.99838 7.56408C3.99171 7.49009 3.96457 7.41943 3.92 7.36C3.71228 7.08305 3.6 6.74619 3.6 6.4ZM5.2 4C4.81355 3.99989 4.43278 4.09311 4.09008 4.27173C3.74738 4.45034 3.45288 4.70907 3.23163 5.02592C3.01037 5.34276 2.8689 5.70835 2.81924 6.0916C2.76958 6.47485 2.8132 6.86443 2.9464 7.2272C2.65701 7.28989 2.40101 7.45735 2.22764 7.6974C2.05427 7.93744 1.97578 8.2331 2.00724 8.52753C2.03871 8.82195 2.17792 9.09435 2.39811 9.29233C2.61829 9.49031 2.9039 9.59989 3.2 9.6H3.616C3.3184 11.0384 2.5336 11.8688 2.096 12.2344C1.8192 12.4664 1.6 12.8232 1.6 13.2392C1.6 13.88 2.12 14.4 2.7608 14.4H7.64C8.28 14.4 8.8 13.88 8.8 13.2392C8.8 12.8232 8.5808 12.4664 8.304 12.2344C7.8664 11.8688 7.0816 11.0384 6.784 9.6H7.2C7.4961 9.59989 7.78171 9.49031 8.00189 9.29233C8.22208 9.09435 8.36129 8.82195 8.39276 8.52753C8.42423 8.2331 8.34573 7.93744 8.17236 7.6974C7.99899 7.45735 7.74299 7.28989 7.4536 7.2272C7.5868 6.86443 7.63042 6.47485 7.58076 6.0916C7.5311 5.70835 7.38963 5.34276 7.16837 5.02592C6.94712 4.70907 6.65262 4.45034 6.30992 4.27173C5.96722 4.09311 5.58645 3.99989 5.2 4Z" fill="var(--fill-0, #A394C7)" stroke="var(--stroke-0, #A394C7)" stroke-width="0.5"/>
</g>
</svg>
