<svg preserveAspectRatio="none" width="100%" height="100%" overflow="visible" style="display: block;" viewBox="0 0 16 16" fill="none" xmlns="http://www.w3.org/2000/svg">
<g id="fa6-regular:chess-queen" clip-path="url(#clip0_126_2083)">
<path id="Vector" d="M7.9897 3C8.38753 3 8.76906 2.84196 9.05036 2.56066C9.33167 2.27936 9.4897 1.89782 9.4897 1.5C9.4897 1.10218 9.33167 0.720644 9.05036 0.43934C8.76906 0.158035 8.38753 0 7.9897 0C7.59188 0 7.21035 0.158035 6.92904 0.43934C6.64774 0.720644 6.4897 1.10218 6.4897 1.5C6.4897 1.89782 6.64774 2.27936 6.92904 2.56066C7.21035 2.84196 7.59188 3 7.9897 3ZM5.0147 2.75C4.44908 2.75 4.03658 3.15 3.9022 3.59063C3.6522 4.40938 2.8897 5.00313 1.9897 5.00313C1.6772 5.00313 1.38345 4.93125 1.12408 4.80625C0.886579 4.69063 0.602204 4.70312 0.374079 4.84375C0.0115789 5.06562 -0.107171 5.53437 0.105329 5.90312L3.0397 11H4.77095L2.1772 6.49687C3.44283 6.42812 4.53033 5.6875 5.08658 4.62813C5.77408 5.46563 6.81783 6 7.98658 6C9.15533 6 10.1991 5.46563 10.8866 4.62813C11.4428 5.69063 12.5303 6.43125 13.796 6.49687L11.2085 11H12.9397L15.8741 5.90312C16.0866 5.5375 15.9678 5.06875 15.6053 4.84688C15.3772 4.70625 15.0928 4.69375 14.8553 4.80937C14.5928 4.93437 14.3022 5.00625 13.9897 5.00625C13.0897 5.00625 12.3272 4.4125 12.0772 3.59375C11.9428 3.15 11.5303 2.75 10.9647 2.75C10.5116 2.75 10.1428 3.01563 9.9522 3.35313C9.5647 4.04063 8.83033 4.5 7.9897 4.5C7.14908 4.5 6.4147 4.0375 6.0272 3.35313C5.83658 3.01563 5.47095 2.75 5.0147 2.75ZM4.1522 13.5H11.8272L12.346 14.5H3.63658L4.15533 13.5H4.1522ZM13.0178 12.5406C12.846 12.2094 12.5022 12 12.1303 12H3.84908C3.47408 12 3.13345 12.2094 2.96158 12.5406L2.13345 14.1406C2.0397 14.3219 1.9897 14.5219 1.9897 14.725C1.9897 15.4281 2.55845 16 3.2647 16H12.7178C13.421 16 13.9928 15.4313 13.9928 14.725C13.9928 14.5219 13.9428 14.3219 13.8491 14.1406L13.021 12.5406H13.0178Z" fill="var(--fill-0, #A394C7)"/>
</g>
<defs>
<clipPath id="clip0_126_2083">
<rect width="15.9794" height="16" fill="white"/>
</clipPath>
</defs>
</svg>
