<svg preserveAspectRatio="none" width="100%" height="100%" overflow="visible" style="display: block;" viewBox="0 0 16 16" fill="none" xmlns="http://www.w3.org/2000/svg">
<g id="arcticons:chessclock">
<path id="Vector" d="M4.92167 11.4607C5.80226 12.1442 6.88531 12.5152 8.00006 12.5151C9.1148 12.5151 10.1978 12.144 11.0783 11.4603M12.1223 4.635C11.6602 3.96967 11.0439 3.42607 10.3261 3.05064C9.60822 2.67521 8.81017 2.47911 8.00009 2.47908C7.19 2.47904 6.39194 2.67508 5.67407 3.05045C4.9562 3.42582 4.33986 3.96937 3.87767 4.63467M7.70167 4.64467L8 7.497L5.25167 4.24267M1.89467 7.809H4.91033M1.59667 13.5213L2.392 7.809H4.41333L5.20833 13.5213H1.59667ZM1.59667 13.5213L5.20867 13.521M1.73567 12.5217H5.06933" stroke="var(--stroke-0, #A394C7)" stroke-width="1.2" stroke-linecap="round" stroke-linejoin="round"/>
<path id="Vector_2" d="M3.40267 4.596C4.08985 4.60561 4.75617 4.83348 5.30533 5.24667L4.41333 7.809L2.392 7.80933L1.5 5.24667C2.04916 4.83348 2.71549 4.60561 3.40267 4.596ZM3.40267 4.596V2.67167M2.44033 3.51133H4.36467M11.0893 7.809H14.105M13.608 7.809H11.5867M13.608 7.809L14.403 13.5213H10.7913L11.5867 7.809M13.608 7.809L14.5 5.24667C13.9554 4.82506 13.2861 4.5963 12.5973 4.5963C11.9086 4.5963 11.2393 4.82506 10.6947 5.24667L11.5867 7.809M10.9303 12.5217H14.264M12.597 4.596V3.996" stroke="var(--stroke-0, #A394C7)" stroke-width="1.2" stroke-linecap="round" stroke-linejoin="round"/>
</g>
</svg>
