<svg preserveAspectRatio="none" width="100%" height="100%" overflow="visible" style="display: block;" viewBox="0 0 24 24" fill="none" xmlns="http://www.w3.org/2000/svg">
<g id="Depth 5, Frame 0" clip-path="url(#clip0_118_1889)">
<path id="Vector - 0" fill-rule="evenodd" clip-rule="evenodd" d="M12.75 9.375C12.75 9.99632 12.2463 10.5 11.625 10.5C11.0037 10.5 10.5 9.99632 10.5 9.375C10.5 8.75368 11.0037 8.25 11.625 8.25C12.2463 8.25 12.75 8.75368 12.75 9.375V9.375ZM21.75 12.1388C21.6623 17.3876 17.4451 21.6304 12.1969 21.75H11.9934C9.6024 21.7668 7.28964 20.8986 5.50031 19.3125C5.18965 19.0363 5.16174 18.5605 5.43797 18.2498C5.7142 17.9392 6.18996 17.9113 6.50063 18.1875C7.06569 18.6931 7.70026 19.1152 8.385 19.4409L10.875 16.0163C8.73938 15.0947 6.42469 15.4866 5.11875 15.7078C3.99092 15.9026 2.85102 15.4353 2.18438 14.505L2.15625 14.4647L0.864375 12.4022C0.758561 12.2328 0.72469 12.0282 0.77027 11.8337C0.815851 11.6392 0.937117 11.471 1.10719 11.3663L10.5 5.58094V3C10.5 2.58579 10.8358 2.25 11.25 2.25H12C14.6101 2.24974 17.1113 3.29599 18.9438 5.15459C20.7763 7.01319 21.7871 9.52893 21.75 12.1388V12.1388ZM20.25 12.1181C20.2816 9.90969 19.4264 7.7808 17.8758 6.20798C16.3252 4.63516 14.2087 3.74977 12 3.75V6C11.9998 6.26039 11.8646 6.50206 11.6428 6.63844L2.53688 12.2428L3.41438 13.6491C3.75195 14.1036 4.31764 14.328 4.875 14.2284C6.375 13.9753 9.44719 13.4559 12.1941 14.9953C14.1859 14.8893 15.7473 13.2446 15.75 11.25C15.75 10.8358 16.0858 10.5 16.5 10.5C16.9142 10.5 17.25 10.8358 17.25 11.25C17.2462 13.9951 15.1308 16.275 12.3938 16.4841L9.85219 19.9791C10.6077 20.175 11.3865 20.2661 12.1669 20.25C16.6064 20.1465 20.1732 16.5582 20.25 12.1181V12.1181Z" fill="var(--fill-0, white)"/>
<g id="Depth 6, Frame 0">
</g>
</g>
<defs>
<clipPath id="clip0_118_1889">
<rect width="24" height="24" fill="white"/>
</clipPath>
</defs>
</svg>
