<svg preserveAspectRatio="none" width="100%" height="100%" overflow="visible" style="display: block;" viewBox="0 0 18 18" fill="none" xmlns="http://www.w3.org/2000/svg">
<path id="Vector - 0" fill-rule="evenodd" clip-rule="evenodd" d="M6.75 0.75H2.25C1.42157 0.75 0.75 1.42157 0.75 2.25V6.75C0.75 7.57843 1.42157 8.25 2.25 8.25H6.75C7.57843 8.25 8.25 7.57843 8.25 6.75V2.25C8.25 1.42157 7.57843 0.75 6.75 0.75V0.75ZM6.75 6.75H2.25V2.25H6.75V6.75V6.75ZM6.75 9.75H2.25C1.42157 9.75 0.75 10.4216 0.75 11.25V15.75C0.75 16.5784 1.42157 17.25 2.25 17.25H6.75C7.57843 17.25 8.25 16.5784 8.25 15.75V11.25C8.25 10.4216 7.57843 9.75 6.75 9.75V9.75ZM6.75 15.75H2.25V11.25H6.75V15.75V15.75ZM15.75 0.75H11.25C10.4216 0.75 9.75 1.42157 9.75 2.25V6.75C9.75 7.57843 10.4216 8.25 11.25 8.25H15.75C16.5784 8.25 17.25 7.57843 17.25 6.75V2.25C17.25 1.42157 16.5784 0.75 15.75 0.75V0.75ZM15.75 6.75H11.25V2.25H15.75V6.75V6.75ZM9.75 13.5V10.5C9.75 10.0858 10.0858 9.75 10.5 9.75C10.9142 9.75 11.25 10.0858 11.25 10.5V13.5C11.25 13.9142 10.9142 14.25 10.5 14.25C10.0858 14.25 9.75 13.9142 9.75 13.5V13.5ZM17.25 12C17.25 12.4142 16.9142 12.75 16.5 12.75H14.25V16.5C14.25 16.9142 13.9142 17.25 13.5 17.25H10.5C10.0858 17.25 9.75 16.9142 9.75 16.5C9.75 16.0858 10.0858 15.75 10.5 15.75H12.75V10.5C12.75 10.0858 13.0858 9.75 13.5 9.75C13.9142 9.75 14.25 10.0858 14.25 10.5V11.25H16.5C16.9142 11.25 17.25 11.5858 17.25 12V12ZM17.25 15V16.5C17.25 16.9142 16.9142 17.25 16.5 17.25C16.0858 17.25 15.75 16.9142 15.75 16.5V15C15.75 14.5858 16.0858 14.25 16.5 14.25C16.9142 14.25 17.25 14.5858 17.25 15V15Z" fill="var(--fill-0, white)"/>
</svg>
